<svg width="12" height="12" viewBox="0 0 12 12" fill="none" xmlns="http://www.w3.org/2000/svg">
<path d="M6.00001 6.84763C2.77572 6.84763 1 8.32328 1 11.0028C1 11.2121 1.17532 11.3817 1.39164 11.3817H10.6084C10.8247 11.3817 11 11.2121 11 11.0028C11 8.32343 9.2243 6.84763 6.00001 6.84763ZM1.79754 10.6239C1.95159 8.62048 3.36346 7.60543 6.00001 7.60543C8.63656 7.60543 10.0485 8.62048 10.2026 10.6239H1.79754Z" fill="white" stroke="#2D2D2D" stroke-width="0.2"/>
<path d="M5.99988 1C4.51881 1 3.40198 2.1022 3.40198 3.56373C3.40198 5.06806 4.56739 6.29176 5.99988 6.29176C7.43238 6.29176 8.59779 5.06806 8.59779 3.56385C8.59779 2.1022 7.48096 1 5.99988 1ZM5.99988 5.5341C4.99923 5.5341 4.18526 4.65026 4.18526 3.56385C4.18526 2.51735 4.94845 1.75778 5.99988 1.75778C7.03449 1.75778 7.8145 2.53414 7.8145 3.56385C7.8145 4.65026 7.00054 5.5341 5.99988 5.5341Z" fill="white" stroke="#2D2D2D" stroke-width="0.2"/>
</svg>
